<?xml version="1.0" encoding="utf-8"?>
<svg viewBox="0 0 500 500" xmlns="http://www.w3.org/2000/svg">
  <defs/>
  <g id="SVGRepo_bgCarrier" stroke-width="0" transform="matrix(7.687618, 0, 0, 7.687618, 10.071005, 4.121117)" style="">
    <path transform="translate(0, 0), scale(4)" fill="#ffffff" d="M9.166.33a2.25 2.25 0 00-2.332 0l-5.25 3.182A2.25 2.25 0 00.5 5.436v5.128a2.25 2.25 0 001.084 1.924l5.25 3.182a2.25 2.25 0 002.332 0l5.25-3.182a2.25 2.25 0 001.084-1.924V5.436a2.25 2.25 0 00-1.084-1.924L9.166.33z" strokewidth="0"/>
  </g>
  <g id="SVGRepo_tracerCarrier" stroke-linecap="round" stroke-linejoin="round" transform="matrix(7.687618, 0, 0, 7.687618, 10.071005, 4.121117)" style=""/>
  <g id="SVGRepo_iconCarrier" transform="matrix(7.687618, 0, 0, 7.687618, 10.071005, 4.121117)" style="">
    <path d="M47.593 41.008c.251-.435.407-.925.407-1.365V24.367c0-.44-.156-.93-.407-1.364L32 32.005l15.593 9.003z" fill="#00599C"/>
    <path d="m33.386 49.68 13.228-7.637c.381-.22.728-.6.979-1.035L32 32.005l-15.593 9.003c.251.435.598.815.979 1.035l13.228 7.637c.762.44 2.01.44 2.772 0z" fill="#004482"/>
    <path d="M47.593 23.003c-.251-.436-.598-.815-.979-1.035L33.386 14.33c-.762-.44-2.01-.44-2.772 0l-13.228 7.638c-.762.44-1.386 1.52-1.386 2.4v15.275c0 .44.156.93.407 1.365L32 32.005l15.593-9.002z" fill="#659AD2"/>
    <path d="M32 42.672c-5.882 0-10.667-4.785-10.667-10.667S26.118 21.338 32 21.338c3.795 0 7.335 2.043 9.237 5.33l-4.616 2.672A5.356 5.356 0 0 0 32 26.672a5.34 5.34 0 0 0-5.333 5.333A5.34 5.34 0 0 0 32 37.34a5.356 5.356 0 0 0 4.621-2.669l4.616 2.671A10.705 10.705 0 0 1 32 42.671z" fill="#ffffff"/>
  </g>
</svg>