<!DOCTYPE svg PUBLIC "-//W3C//DTD SVG 1.1//EN" "http://www.w3.org/Graphics/SVG/1.1/DTD/svg11.dtd">
<!-- Uploaded to: SVG Repo, www.svgrepo.com, Transformed by: SVG Repo Mixer Tools -->
<svg fill="#05998b" width="800px" height="800px" viewBox="-7.2 -7.2 38.40 38.40" role="img" xmlns="http://www.w3.org/2000/svg">
<g id="SVGRepo_bgCarrier" stroke-width="0">
<path transform="translate(-7.2, -7.2), scale(2.4)" fill="#fff" d="M9.166.33a2.25 2.25 0 00-2.332 0l-5.25 3.182A2.25 2.25 0 00.5 5.436v5.128a2.25 2.25 0 001.084 1.924l5.25 3.182a2.25 2.25 0 002.332 0l5.25-3.182a2.25 2.25 0 001.084-1.924V5.436a2.25 2.25 0 00-1.084-1.924L9.166.33z" strokewidth="0"/>
</g>
<g id="SVGRepo_tracerCarrier" stroke-linecap="round" stroke-linejoin="round"/>
<g id="SVGRepo_iconCarrier">
<path d="M12 0C5.375 0 0 5.375 0 12c0 6.627 5.375 12 12 12 6.626 0 12-5.373 12-12 0-6.625-5.373-12-12-12zm-.624 21.62v-7.528H7.19L13.203 2.38v7.528h4.029L11.376 21.62z"/>
</g>
</svg>