<?xml version="1.0" encoding="utf-8"?>
<svg viewBox="0 0 500 500" xmlns="http://www.w3.org/2000/svg">
  <defs>
    <clipPath clipPathUnits="userSpaceOnUse" id="clipPath48">
      <path d="M 0,675.598 H 527.536 V 0 H 0 Z" id="path46"/>
    </clipPath>
  </defs>
  <g id="SVGRepo_tracerCarrier" stroke-linecap="round" stroke-linejoin="round" transform="matrix(12.639825, 0, 0, 12.639825, 46.963638, 47.055683)" style=""/>
  <g id="SVGRepo_iconCarrier" transform="matrix(12.639825, 0, 0, 12.639825, 46.963638, 47.055683)" style="">
    <title>file_type_firebase</title>
  </g>
  <g id="SVGRepo_bgCarrier" stroke-width="0" transform="matrix(1.200557, 0, 0, 1.200557, 62.140713, 63.206558)" style="">
    <rect x="-46.5" y="-46.5" width="403.00" height="403.00" rx="0" fill="#ffffff" strokewidth="0"/>
  </g>
  <g id="g-1" stroke-linecap="round" stroke-linejoin="round" transform="matrix(1.200557, 0, 0, 1.200557, 62.140713, 63.206558)" style=""/>
  <g id="g8" transform="matrix(0.885144, 0, 0, -0.885144, 29.360943, 585.011536)" style="">
    <path d="M 183.045 560.584 L 158.295 560.584 L 158.295 585.334 L 183.045 585.334 L 183.045 560.584 Z" style="fill:#87d1d7;fill-opacity:1;fill-rule:nonzero;stroke:none" id="path10"/>
    <path d="M 211.332 560.584 L 186.582 560.584 L 186.582 585.334 L 211.332 585.334 L 211.332 560.584 Z" style="fill:#87d1d7;fill-opacity:1;fill-rule:nonzero;stroke:none" id="path12"/>
    <path d="M 183.045 498.441 L 158.295 498.441 L 158.295 523.191 L 183.045 523.191 L 183.045 498.441 Z" style="fill:#87d1d7;fill-opacity:1;fill-rule:nonzero;stroke:none" id="path14"/>
    <path d="M 183.045 467.584 L 158.295 467.584 L 158.295 492.334 L 183.045 492.334 L 183.045 467.584 Z" style="fill:#87d1d7;fill-opacity:1;fill-rule:nonzero;stroke:none" id="path16"/>
    <path d="M 154.332 467.584 L 129.582 467.584 L 129.582 492.334 L 154.332 492.334 L 154.332 467.584 Z" style="fill:#87d1d7;fill-opacity:1;fill-rule:nonzero;stroke:none" id="path18"/>
    <path d="M 211.332 529.512 L 186.582 529.512 L 186.582 554.262 L 211.332 554.262 L 211.332 529.512 Z" style="fill:#87d1d7;fill-opacity:1;fill-rule:nonzero;stroke:none" id="path20"/>
    <path d="M 211.332 438.441 L 186.582 438.441 L 186.582 463.191 L 211.332 463.191 L 211.332 438.441 Z" style="fill:#87d1d7;fill-opacity:1;fill-rule:nonzero;stroke:none" id="path22"/>
    <path d="M 211.332 407.369 L 186.582 407.369 L 186.582 432.119 L 211.332 432.119 L 211.332 407.369 Z" style="fill:#87d1d7;fill-opacity:1;fill-rule:nonzero;stroke:none" id="path24"/>
    <path d="M 183.045 407.369 L 158.295 407.369 L 158.295 432.119 L 183.045 432.119 L 183.045 407.369 Z" style="fill:#87d1d7;fill-opacity:1;fill-rule:nonzero;stroke:none" id="path26"/>
    <path d="M 154.332 407.369 L 129.582 407.369 L 129.582 432.119 L 154.332 432.119 L 154.332 407.369 Z" style="fill:#87d1d7;fill-opacity:1;fill-rule:nonzero;stroke:none" id="path28"/>
    <path d="M 211.332 376.298 L 186.582 376.298 L 186.582 401.048 L 211.332 401.048 L 211.332 376.298 Z" style="fill:#87d1d7;fill-opacity:1;fill-rule:nonzero;stroke:none" id="path30"/>
    <path d="M 211.332 345.226 L 186.582 345.226 L 186.582 369.976 L 211.332 369.976 L 211.332 345.226 Z" style="fill:#87d1d7;fill-opacity:1;fill-rule:nonzero;stroke:none" id="path32"/>
    <path d="M 183.045 345.226 L 158.295 345.226 L 158.295 369.976 L 183.045 369.976 L 183.045 345.226 Z" style="fill:#87d1d7;fill-opacity:1;fill-rule:nonzero;stroke:none" id="path34"/>
    <path d="M 154.332 529.512 L 129.582 529.512 L 129.582 554.262 L 154.332 554.262 L 154.332 529.512 Z" style="fill:#87d1d7;fill-opacity:1;fill-rule:nonzero;stroke:none" id="path36"/>
    <path d="M 301.867 529.512 L 217.01 529.512 L 217.01 585.333 L 301.867 585.333 L 301.867 529.512 Z" style="fill:#54a4a1;fill-opacity:1;fill-rule:nonzero;stroke:none" id="path38"/>
    <path d="M 277.759 465.655 L 218.616 465.655 L 218.616 504.173 L 277.759 504.173 L 277.759 465.655 Z" style="fill:#54a4a1;fill-opacity:1;fill-rule:nonzero;stroke:none" id="path40"/>
    <g id="g42" transform="matrix(1, 0, 0, 1, -5.500741, 38.505177)">
      <g id="g44" clip-path="url(#clipPath48)">
        <g id="g50" transform="translate(351.0659,168.6431)">
          <path d="m 0,0 c -45.1,-38.96 -98.1,-51.52 -118.369,-28.05 -15.671,18.13 -7.221,52.47 18.239,85.111 -14.96,-22.631 -19.069,-45.04 -8.43,-58.351 16.321,-20.399 61.151,-11.66 100.13,19.52 38.981,31.19 57.34,73 41.021,93.4 -8.481,10.6 -24.671,13.33 -43.731,9.13 24.06,7.18 44.981,5.131 56.09,-7.72 C 65.221,89.57 45.101,38.96 0,0" style="fill:#54a4a1;fill-opacity:1;fill-rule:nonzero;stroke:none" id="path52"/>
        </g>
        <g id="g54" transform="translate(128.8765,227.6431)">
          <path d="m 0,0 v 28.531 h -5.249 v 7.873 H 0 v 3.768 c 0,4.194 1.256,7.413 3.769,9.656 2.511,2.243 6.066,3.364 10.665,3.364 0.852,0 1.726,-0.061 2.624,-0.184 0.897,-0.124 1.895,-0.298 2.995,-0.522 l -0.842,-8.378 c -0.606,0.113 -1.149,0.197 -1.632,0.253 -0.482,0.056 -1.071,0.084 -1.766,0.084 -1.413,0 -2.501,-0.37 -3.263,-1.11 -0.763,-0.74 -1.145,-1.795 -1.145,-3.163 v -3.768 h 7.066 V 28.531 H 11.405 L 11.405,0 Z" style="fill:#87d1d7;fill-opacity:1;fill-rule:nonzero;stroke:none" id="path56"/>
        </g>
        <g id="g58" transform="translate(164.8765,235.0454)">
          <path d="M 0,0 C 1.121,0 2.153,0.224 3.096,0.673 4.037,1.121 4.8,1.704 5.383,2.422 V 8.108 H 1.346 c -1.795,0 -3.102,-0.437 -3.92,-1.312 -0.819,-0.875 -1.228,-1.985 -1.228,-3.331 0,-1.032 0.354,-1.867 1.06,-2.507 C -2.035,0.319 -1.122,0 0,0 M 7.503,-7.369 C 7.188,-6.786 6.902,-6.136 6.645,-5.417 6.387,-4.7 6.168,-3.96 5.988,-3.196 4.912,-4.7 3.611,-5.895 2.086,-6.78 0.561,-7.666 -1.29,-8.109 -3.466,-8.109 c -3.454,0 -6.263,0.998 -8.428,2.995 -2.165,1.996 -3.247,4.654 -3.247,7.973 0,3.612 1.352,6.398 4.055,8.361 2.702,1.963 6.813,2.944 12.331,2.944 h 4.138 v 2.591 c 0,1.548 -0.364,2.736 -1.093,3.566 -0.729,0.829 -1.856,1.245 -3.382,1.245 -1.301,0 -2.27,-0.308 -2.91,-0.925 -0.64,-0.618 -0.959,-1.577 -0.959,-2.877 L -13.963,17.798 -14.03,18 c -0.158,3.319 1.222,6.095 4.138,8.327 2.915,2.232 6.774,3.348 11.575,3.348 4.485,0 8.125,-1.122 10.917,-3.365 2.793,-2.244 4.189,-5.451 4.189,-9.623 V 2.96 c 0,-1.951 0.162,-3.757 0.487,-5.416 0.326,-1.661 0.814,-3.31 1.464,-4.946 z" style="fill:#87d1d7;fill-opacity:1;fill-rule:nonzero;stroke:none" id="path60"/>
        </g>
        <g id="g62" transform="translate(206.9663,237.8716)">
          <path d="m 0,0 c 0,0.896 -0.511,1.698 -1.531,2.405 -1.021,0.706 -2.877,1.34 -5.569,1.901 -4.239,0.83 -7.435,2.12 -9.588,3.869 -2.154,1.75 -3.23,4.138 -3.23,7.167 0,3.207 1.346,5.927 4.037,8.159 2.692,2.231 6.336,3.348 10.935,3.348 4.844,0 8.702,-1.083 11.574,-3.247 2.87,-2.165 4.239,-4.963 4.104,-8.395 L 10.665,15.005 H -0.37 c 0,1.435 -0.365,2.523 -1.094,3.264 -0.729,0.74 -1.901,1.11 -3.515,1.11 -1.19,0 -2.188,-0.325 -2.996,-0.976 -0.806,-0.65 -1.211,-1.48 -1.211,-2.489 0,-0.965 0.465,-1.783 1.397,-2.456 0.931,-0.674 2.81,-1.279 5.636,-1.817 4.44,-0.875 7.732,-2.182 9.874,-3.92 2.142,-1.739 3.214,-4.2 3.214,-7.385 0,-3.275 -1.454,-5.972 -4.358,-8.092 -2.905,-2.119 -6.746,-3.18 -11.523,-3.18 -4.957,0 -8.877,1.257 -11.759,3.769 -2.883,2.512 -4.256,5.316 -4.121,8.411 l 0.066,0.202 h 10.296 c 0.045,-1.727 0.567,-2.972 1.565,-3.734 0.998,-0.763 2.417,-1.145 4.255,-1.145 1.526,0 2.681,0.298 3.466,0.892 C -0.394,-1.946 0,-1.1 0,0" style="fill:#87d1d7;fill-opacity:1;fill-rule:nonzero;stroke:none" id="path64"/>
        </g>
        <g id="g66" transform="translate(236.7085,273.0972)">
          <path d="m 0,0 v -9.05 h 6.157 v -7.873 H 0 v -16.688 c 0,-1.301 0.264,-2.238 0.791,-2.81 0.526,-0.571 1.239,-0.857 2.137,-0.857 0.718,0 1.283,0.022 1.699,0.067 0.414,0.045 0.947,0.135 1.598,0.269 l 0.807,-8.412 c -1.257,-0.291 -2.388,-0.499 -3.398,-0.622 -1.009,-0.123 -2.198,-0.185 -3.567,-0.185 -3.746,0 -6.583,0.998 -8.511,2.995 -1.93,1.996 -2.894,5.158 -2.894,9.487 v 16.756 h -5.114 v 7.873 h 5.114 V 0 Z" style="fill:#87d1d7;fill-opacity:1;fill-rule:nonzero;stroke:none" id="path68"/>
        </g>
        <g id="g70" transform="translate(282.4654,235.0454)">
          <path d="M 0,0 C 1.121,0 2.153,0.224 3.096,0.673 4.037,1.121 4.8,1.704 5.383,2.422 V 8.108 H 1.346 c -1.795,0 -3.102,-0.437 -3.92,-1.312 -0.819,-0.875 -1.228,-1.985 -1.228,-3.331 0,-1.032 0.354,-1.867 1.06,-2.507 C -2.035,0.319 -1.122,0 0,0 M 7.503,-7.369 C 7.188,-6.786 6.902,-6.136 6.645,-5.417 6.387,-4.7 6.168,-3.96 5.988,-3.196 4.912,-4.7 3.611,-5.895 2.086,-6.78 0.561,-7.666 -1.29,-8.109 -3.466,-8.109 c -3.454,0 -6.263,0.998 -8.428,2.995 -2.165,1.996 -3.247,4.654 -3.247,7.973 0,3.612 1.352,6.398 4.055,8.361 2.702,1.963 6.813,2.944 12.331,2.944 h 4.138 v 2.591 c 0,1.548 -0.364,2.736 -1.093,3.566 -0.729,0.829 -1.856,1.245 -3.382,1.245 -1.301,0 -2.27,-0.308 -2.91,-0.925 -0.64,-0.618 -0.959,-1.577 -0.959,-2.877 L -13.963,17.798 -14.03,18 c -0.158,3.319 1.222,6.095 4.138,8.327 2.915,2.232 6.774,3.348 11.575,3.348 4.485,0 8.125,-1.122 10.917,-3.365 2.793,-2.244 4.189,-5.451 4.189,-9.623 V 2.96 c 0,-1.951 0.162,-3.757 0.487,-5.416 0.326,-1.661 0.814,-3.31 1.464,-4.946 z" style="fill:#87d1d7;fill-opacity:1;fill-rule:nonzero;stroke:none" id="path72"/>
        </g>
        <path d="m 317.491,227.643 h -11.406 v 36.404 h 11.406 z" style="fill:#87d1d7;fill-opacity:1;fill-rule:nonzero;stroke:none" id="path74"/>
        <g id="g76" transform="translate(261.1509,233.0572)">
          <path d="m 0,0 c 0,-3.103 -2.516,-5.618 -5.618,-5.618 -3.103,0 -5.618,2.515 -5.618,5.618 0,3.104 2.515,5.618 5.618,5.618 C -2.516,5.618 0,3.104 0,0" style="fill:#87d1d7;fill-opacity:1;fill-rule:nonzero;stroke:none" id="path78"/>
        </g>
        <g id="g80" transform="translate(317.4058,271.8433)">
          <path d="m 0,0 c 0,-3.103 -2.516,-5.618 -5.618,-5.618 -3.103,0 -5.618,2.515 -5.618,5.618 0,3.103 2.515,5.618 5.618,5.618 C -2.516,5.618 0,3.103 0,0" style="fill:#87d1d7;fill-opacity:1;fill-rule:nonzero;stroke:none" id="path82"/>
        </g>
      </g>
    </g>
  </g>
</svg>