<?xml version="1.0" encoding="utf-8"?>
<svg xmlns="http://www.w3.org/2000/svg" viewBox="0 0 500 500">
  <defs>
    <radialGradient id="paint0_radial_415_11747" cx="0" cy="0" r="1" gradientUnits="userSpaceOnUse" gradientTransform="matrix(0, 262.79425, -262.79425, 0, 250.321442, 249.679504)">
      <stop stop-color="white"/>
      <stop offset="1" stop-color="white" stop-opacity="0"/>
    </radialGradient>
  </defs>
  <path opacity="0.2" d="M 499.366 378.272 L 499.366 250.384 L 499.772 250.384 L 499.772 248.973 L 499.366 248.973 L 499.366 121.091 C 499.359 89.721 487.154 59.591 465.333 37.061 L 465.333 34.741 L 499.366 34.741 L 499.366 33.321 L 466.319 33.321 L 498.051 1.421 L 497.084 0.451 L 465.361 32.361 L 465.361 1.131 L 463.95 1.131 L 463.95 33.321 L 461.552 33.321 C 439.349 12.101 409.823 0.251 379.108 0.231 L 121.12 0.231 C 90.418 0.261 60.907 12.111 38.713 33.321 L 36.306 33.321 L 36.306 1.131 L 34.904 1.131 L 34.904 32.331 L 3.182 0.421 L 2.215 1.391 L 33.937 33.291 L 2.883 33.291 L 2.883 34.701 L 34.904 34.701 L 34.904 37.061 C 13.08 59.591 0.876 89.721 0.871 121.091 L 0.871 378.272 C 0.876 409.635 13.08 439.767 34.904 462.292 L 34.904 464.651 L 2.883 464.651 L 2.883 466.063 L 33.908 466.063 L 2.185 497.969 L 3.153 498.936 L 34.875 467.03 L 34.875 498.221 L 36.277 498.221 L 36.277 466.033 L 38.686 466.033 C 60.885 487.255 90.408 499.107 121.12 499.129 L 379.108 499.129 C 409.812 499.103 439.328 487.251 461.523 466.033 L 463.921 466.033 L 463.921 498.221 L 465.333 498.221 L 465.333 467.03 L 497.056 498.936 L 498.023 497.969 L 466.29 466.063 L 499.772 466.063 L 499.772 464.651 L 465.333 464.651 L 465.333 462.292 C 487.148 439.761 499.353 409.633 499.366 378.272 Z M 497.954 378.272 C 497.952 408.759 486.28 438.089 465.333 460.242 L 465.333 339.064 L 497.452 339.064 L 497.452 337.662 L 465.333 337.662 L 465.333 250.384 L 497.954 250.384 L 497.954 378.272 Z M 338.625 337.662 L 337.658 336.695 C 339.263 335.066 340.819 333.389 342.328 331.669 L 342.328 337.662 L 338.625 337.662 Z M 342.328 339.075 L 342.328 341.385 L 340.027 339.075 L 342.328 339.075 Z M 158.712 337.662 L 158.712 332.587 C 159.969 333.989 161.264 335.352 162.58 336.695 L 161.613 337.662 L 158.712 337.662 Z M 160.211 339.075 L 158.712 340.563 L 158.712 339.064 L 160.211 339.075 Z M 161.613 161.695 L 162.58 162.662 C 161.264 164.005 159.969 165.378 158.712 166.77 L 158.712 161.695 L 161.613 161.695 Z M 158.712 160.282 L 158.712 158.794 L 160.211 160.293 L 158.712 160.282 Z M 342.328 161.695 L 342.328 167.688 C 340.819 165.968 339.263 164.291 337.658 162.662 L 338.625 161.695 L 342.328 161.695 Z M 340.027 160.282 L 342.328 157.971 L 342.328 160.282 L 340.027 160.282 Z M 342.328 248.963 L 339.021 248.963 C 338.875 225.766 329.715 203.534 313.477 186.967 L 336.682 163.667 C 338.616 165.645 340.504 167.698 342.347 169.825 L 342.328 248.963 Z M 343.73 171.498 C 361.764 193.294 371.675 220.673 371.769 248.963 L 343.73 248.963 L 343.73 171.498 Z M 312.48 187.934 C 328.464 204.228 337.48 226.101 337.62 248.925 L 251.81 248.925 L 312.48 187.934 Z M 250.825 247.88 L 250.825 161.695 C 273.569 161.853 295.348 170.919 311.486 186.949 L 250.825 247.88 Z M 249.413 247.88 L 188.743 186.881 C 204.899 170.88 226.675 161.841 249.413 161.695 L 249.413 247.88 Z M 248.446 248.847 L 162.618 248.847 C 162.763 226.025 171.777 204.154 187.755 187.857 L 248.446 248.847 Z M 248.446 250.258 L 187.776 311.248 C 171.798 294.951 162.782 273.081 162.637 250.258 L 248.446 250.258 Z M 249.413 251.225 L 249.413 337.662 C 226.663 337.503 204.882 328.433 188.743 312.399 L 249.413 251.225 Z M 250.825 251.225 L 311.486 312.215 C 295.38 328.318 273.598 337.456 250.825 337.662 L 250.825 251.225 Z M 251.792 250.258 L 337.59 250.258 C 337.45 273.082 328.434 294.955 312.453 311.248 L 251.792 250.258 Z M 335.667 162.662 L 312.462 185.971 C 299.725 173.337 283.449 164.87 265.791 161.695 L 334.681 161.695 L 335.667 162.662 Z M 250.825 160.282 L 250.825 127.341 C 281.467 127.491 310.908 139.271 333.201 160.293 L 250.825 160.282 Z M 249.413 160.282 L 167.036 160.282 C 189.325 139.251 218.77 127.471 249.413 127.331 L 249.413 160.282 Z M 234.436 161.695 C 216.772 164.87 200.49 173.337 187.747 185.971 L 164.541 162.662 L 165.508 161.695 L 234.436 161.695 Z M 163.574 163.629 L 186.78 186.929 C 170.535 203.491 161.373 225.725 161.235 248.925 L 158.731 248.925 L 158.731 168.907 C 160.287 167.118 161.903 165.368 163.574 163.676 L 163.574 163.629 Z M 157.31 248.925 L 128.429 248.925 C 128.537 220.201 138.763 192.435 157.31 170.502 L 157.31 248.925 Z M 157.31 250.336 L 157.31 328.758 C 138.763 306.826 128.537 279.059 128.429 250.336 L 157.31 250.336 Z M 158.712 250.336 L 161.215 250.336 C 161.351 273.532 170.513 295.764 186.759 312.322 L 163.555 335.633 C 161.882 333.941 160.268 332.191 158.721 330.402 L 158.712 250.336 Z M 164.571 336.695 L 187.776 313.386 C 200.512 326.017 216.783 334.481 234.436 337.662 L 165.557 337.662 L 164.571 336.695 Z M 249.413 339.075 L 249.413 372.025 C 218.77 371.883 189.325 360.105 167.036 339.075 L 249.413 339.075 Z M 250.825 339.075 L 333.201 339.075 C 310.908 360.099 281.467 371.875 250.825 372.025 L 250.825 339.075 Z M 265.791 337.662 C 283.456 334.492 299.739 326.025 312.48 313.386 L 335.686 336.695 L 334.719 337.662 L 265.791 337.662 Z M 336.663 335.73 L 313.458 312.419 C 329.697 295.856 338.858 273.628 339.003 250.432 L 342.309 250.432 L 342.309 329.571 C 340.504 331.659 338.622 333.712 336.663 335.73 Z M 343.73 250.432 L 371.769 250.432 C 371.675 278.722 361.764 306.101 343.73 327.898 L 343.73 250.432 Z M 373.21 249.022 C 373.102 219.822 362.658 191.604 343.73 169.371 L 343.73 161.695 L 418.083 161.695 C 432.077 188.659 439.414 218.582 439.479 248.963 L 373.21 249.022 Z M 343.73 160.34 L 343.73 156.611 L 384.512 115.621 C 397.573 128.851 408.632 143.911 417.337 160.34 L 343.73 160.34 Z M 343.73 154.611 L 343.73 84.171 C 358.275 92.501 371.653 102.731 383.516 114.571 L 343.73 154.611 Z M 342.328 156.031 L 338.045 160.34 L 335.251 160.34 C 312.595 138.421 282.35 126.091 250.825 125.921 L 250.825 59.321 C 282.88 59.391 314.383 67.671 342.328 83.381 L 342.328 156.031 Z M 249.413 125.921 C 217.895 126.071 187.651 138.381 164.987 160.282 L 162.193 160.282 L 158.712 156.781 L 158.712 82.911 C 186.462 67.501 217.67 59.381 249.413 59.311 L 249.413 125.921 Z M 157.31 155.381 L 116.702 114.571 C 128.791 102.511 142.45 92.131 157.31 83.721 L 157.31 155.381 Z M 157.31 157.381 L 157.31 160.282 L 82.861 160.282 C 91.564 143.851 102.623 128.791 115.687 115.561 L 157.31 157.381 Z M 157.31 161.704 L 157.31 168.375 C 137.881 190.744 127.131 219.346 127.017 248.973 L 60.759 248.973 C 60.822 218.589 68.159 188.662 82.155 161.695 L 157.31 161.704 Z M 127.017 250.384 C 127.131 280.011 137.881 308.614 157.31 330.982 L 157.31 337.662 L 82.155 337.662 C 68.16 310.698 60.823 280.775 60.759 250.394 L 127.017 250.384 Z M 157.31 339.064 L 157.31 341.965 L 115.735 383.763 C 102.671 370.537 91.612 355.472 82.909 339.045 L 157.31 339.064 Z M 157.31 343.976 L 157.31 415.641 C 142.45 407.225 128.791 396.847 116.702 384.788 L 157.31 343.976 Z M 158.712 342.565 L 162.193 339.064 L 164.987 339.064 C 187.649 360.972 217.893 373.286 249.413 373.437 L 249.413 440.054 C 217.67 439.977 186.463 431.853 158.712 416.443 L 158.712 342.565 Z M 250.825 373.437 C 282.343 373.286 312.586 360.977 335.251 339.075 L 338.045 339.075 L 342.328 343.387 L 342.328 415.979 C 314.382 431.681 282.88 439.966 250.825 440.045 L 250.825 373.437 Z M 343.73 344.798 L 383.516 384.798 C 371.648 396.635 358.271 406.856 343.73 415.195 L 343.73 344.798 Z M 343.73 342.807 L 343.73 339.075 L 417.337 339.075 C 408.632 355.5 397.573 370.565 384.512 383.792 L 343.73 342.807 Z M 343.73 337.662 L 343.73 330.044 C 362.658 307.811 373.102 279.593 373.21 250.394 L 439.479 250.394 C 439.414 280.775 432.077 310.698 418.083 337.662 L 343.73 337.662 Z M 440.881 250.394 L 463.921 250.394 L 463.921 337.662 L 419.668 337.662 C 433.55 310.661 440.821 280.747 440.881 250.384 L 440.881 250.394 Z M 440.881 248.982 C 440.822 218.617 433.551 188.7 419.668 161.695 L 463.921 161.695 L 463.921 248.963 L 440.881 248.982 Z M 418.923 160.302 C 410.098 143.501 398.838 128.091 385.509 114.581 L 463.032 36.681 L 463.099 36.741 C 463.389 37.041 463.679 37.351 463.969 37.701 L 463.969 160.293 L 418.923 160.302 Z M 461.968 35.701 L 384.512 113.571 C 372.369 101.451 358.652 91.021 343.73 82.551 L 343.73 34.731 L 460.963 34.731 L 461.968 35.701 Z M 342.328 81.761 C 314.339 66.191 282.854 57.981 250.825 57.901 L 250.825 34.691 L 342.328 34.691 L 342.328 81.761 Z M 250.825 33.321 L 250.825 1.641 L 342.328 1.641 L 342.328 33.321 L 250.825 33.321 Z M 249.413 33.321 L 158.712 33.321 L 158.712 1.641 L 249.413 1.641 L 249.413 33.321 Z M 249.413 34.731 L 249.413 57.941 C 217.695 58.011 186.504 66.061 158.712 81.351 L 158.712 34.731 L 249.413 34.731 Z M 157.31 82.111 C 142.08 90.651 128.091 101.241 115.735 113.581 L 38.279 35.711 L 39.246 34.741 L 157.31 34.741 L 157.31 82.111 Z M 37.187 36.741 L 37.244 36.681 L 114.729 114.571 C 101.392 128.081 90.13 143.491 81.305 160.293 L 36.306 160.293 L 36.306 37.661 C 36.645 37.351 36.886 37.041 37.187 36.741 Z M 80.57 161.695 C 66.689 188.694 59.42 218.604 59.357 248.963 L 36.306 248.963 L 36.306 161.695 L 80.57 161.695 Z M 59.357 250.375 C 59.416 280.74 66.686 310.657 80.57 337.662 L 36.306 337.662 L 36.306 250.384 L 59.357 250.375 Z M 81.305 339.055 C 90.13 355.862 101.392 371.269 114.729 384.778 L 37.244 462.679 L 37.187 462.62 C 36.886 462.321 36.607 462.002 36.306 461.653 L 36.306 339.064 L 81.305 339.055 Z M 38.269 463.655 L 115.725 385.784 C 128.084 398.123 142.071 408.715 157.3 417.265 L 157.3 464.64 L 39.275 464.64 L 38.269 463.655 Z M 158.712 418.048 C 186.504 433.332 217.695 441.382 249.413 441.455 L 249.413 464.661 L 158.712 464.661 L 158.712 418.048 Z M 249.413 466.033 L 249.413 497.717 L 158.712 497.717 L 158.712 466.033 L 249.413 466.033 Z M 250.825 466.033 L 342.328 466.033 L 342.328 497.717 L 250.825 497.717 L 250.825 466.033 Z M 250.825 464.622 L 250.825 441.417 C 282.854 441.338 314.339 433.127 342.328 417.555 L 342.328 464.583 L 250.825 464.622 Z M 343.73 416.81 C 358.652 408.34 372.369 397.905 384.512 385.784 L 461.968 463.655 L 461.001 464.622 L 343.73 464.622 L 343.73 416.81 Z M 463.032 462.62 L 462.964 462.679 L 385.488 384.788 C 398.819 371.276 410.079 355.869 418.905 339.064 L 463.902 339.064 L 463.902 461.693 L 463.032 462.62 Z M 497.954 121.091 L 497.954 248.973 L 465.333 248.973 L 465.333 161.695 L 497.452 161.695 L 497.452 160.282 L 465.333 160.282 L 465.333 39.141 C 486.272 61.291 497.945 90.611 497.954 121.091 Z M 459.492 33.291 L 343.73 33.291 L 343.73 1.641 L 379.108 1.641 C 408.945 1.661 437.666 12.981 459.492 33.321 L 459.492 33.291 Z M 121.091 1.611 L 157.31 1.611 L 157.31 33.291 L 40.745 33.291 C 62.573 12.971 91.29 1.651 121.12 1.641 L 121.091 1.611 Z M 2.273 378.272 L 2.273 121.091 C 2.279 90.601 13.955 61.271 34.904 39.111 L 34.904 160.263 L 2.805 160.263 L 2.805 161.695 L 34.904 161.695 L 34.904 248.963 L 2.689 248.963 L 2.689 250.375 L 34.904 250.375 L 34.904 337.662 L 2.805 337.662 L 2.805 339.075 L 34.904 339.075 L 34.904 460.222 C 13.96 438.076 2.284 408.753 2.273 378.272 Z M 40.745 466.063 L 157.31 466.063 L 157.31 497.746 L 121.12 497.746 C 91.283 497.715 62.564 486.384 40.745 466.033 L 40.745 466.063 Z M 379.147 497.746 L 343.73 497.746 L 343.73 466.033 L 459.492 466.033 C 437.663 486.373 408.945 497.693 379.108 497.717 L 379.147 497.746 Z" fill="url(#paint0_radial_415_11747)" style="stroke-width: 1;"/>
</svg>